<svg width="106" height="28" viewBox="0 0 106 28" fill="none" xmlns="http://www.w3.org/2000/svg">
<g clip-path="url(#clip0_0_221)">
<path d="M-6.23239 -7.63867H112.232C115.122 -7.63867 117.47 -5.3106 117.47 -2.44594V30.4413C117.47 33.306 115.122 35.6341 112.232 35.6341H-6.23239C-9.12199 35.6341 -11.4703 33.306 -11.4703 30.4413V-2.44594C-11.4703 -5.3106 -9.12199 -7.63867 -6.23239 -7.63867Z" fill="white"/>
<path d="M16.7535 13.0104C16.7273 9.91209 19.3113 8.4062 19.4248 8.33696C17.9582 6.22525 15.6884 5.931 14.894 5.90503C12.9909 5.70598 11.1401 7.03878 10.1711 7.03878C9.18464 7.03878 7.6831 5.931 6.0768 5.95696C4.00781 5.99158 2.06104 7.17725 1.00472 9.02932C-1.18648 12.7941 0.446011 18.333 2.54992 21.3794C3.60624 22.8679 4.82842 24.5383 6.44345 24.4777C8.01484 24.4171 8.60847 23.4824 10.5029 23.4824C12.3885 23.4824 12.9385 24.4777 14.5797 24.4431C16.2733 24.4171 17.3296 22.9458 18.351 21.4399C19.5645 19.735 20.0534 18.0474 20.0708 17.9608C20.0272 17.9435 16.7884 16.7146 16.7535 13.0104Z" fill="black"/>
<path d="M13.6544 3.90573C14.5012 2.85853 15.0773 1.43053 14.9202 -0.0234375C13.698 0.0284898 12.1615 0.816054 11.2798 1.84594C10.5029 2.75467 9.80447 4.2346 9.97907 5.62798C11.3584 5.73184 12.7726 4.93562 13.6544 3.90573Z" fill="black"/>
<path d="M39.5559 24.2613H37.356L36.1513 20.5052H31.9609L30.8173 24.2613H28.6785L32.8252 11.4785H35.3918L39.5559 24.2613ZM35.7933 18.9301L34.7021 15.5981C34.5886 15.2519 34.3704 14.4557 34.0561 13.1921H34.0124C33.8815 13.7374 33.6807 14.5422 33.4013 15.5981L32.3276 18.9301H35.7933Z" fill="black"/>
<path d="M50.2151 19.5443C50.2151 21.1108 49.7874 22.3484 48.9231 23.2571C48.1549 24.0706 47.1946 24.4687 46.0597 24.4687C44.8288 24.4687 43.9471 24.036 43.4058 23.1619V27.9998H41.3368V18.073C41.3368 17.0864 41.3106 16.0825 41.2582 15.0439H43.0741L43.1875 16.5065H43.2225C43.9121 15.4074 44.9597 14.8535 46.3565 14.8535C47.4565 14.8535 48.3644 15.2862 49.0977 16.143C49.8485 17.0085 50.2151 18.1336 50.2151 19.5443ZM48.1112 19.6135C48.1112 18.7134 47.9104 17.9778 47.5001 17.398C47.0549 16.7921 46.4525 16.4892 45.7018 16.4892C45.1954 16.4892 44.7327 16.6623 44.3137 16.9912C43.9034 17.3287 43.624 17.7614 43.5018 18.3067C43.4407 18.5577 43.4058 18.7654 43.4058 18.9298V20.4703C43.4058 21.1367 43.6153 21.7079 44.0256 22.1666C44.4359 22.6253 44.9772 22.859 45.6407 22.859C46.4176 22.859 47.02 22.5561 47.4565 21.9676C47.893 21.3704 48.1112 20.5915 48.1112 19.6135Z" fill="black"/>
<path d="M60.9005 19.5443C60.9005 21.1108 60.4728 22.3484 59.6085 23.2571C58.8403 24.0706 57.88 24.4687 56.7451 24.4687C55.5142 24.4687 54.6325 24.036 54.0912 23.1619V27.9998H52.0222V18.073C52.0222 17.0864 51.996 16.0825 51.9437 15.0439H53.7595L53.873 16.5065H53.9079C54.5976 15.4074 55.6451 14.8535 57.0419 14.8535C58.1419 14.8535 59.0498 15.2862 59.7831 16.143C60.5339 17.0085 60.9005 18.1336 60.9005 19.5443ZM58.7966 19.6135C58.7966 18.7134 58.5959 17.9778 58.1855 17.398C57.7403 16.7921 57.138 16.4892 56.3872 16.4892C55.8809 16.4892 55.4182 16.6623 54.9991 16.9912C54.5888 17.3287 54.3182 17.7614 54.1873 18.3067C54.1261 18.5577 54.0912 18.7654 54.0912 18.9298V20.4703C54.0912 21.1367 54.3007 21.7079 54.711 22.1666C55.1214 22.6253 55.6626 22.859 56.3261 22.859C57.103 22.859 57.7141 22.5561 58.1419 21.9676C58.5871 21.3704 58.7966 20.5915 58.7966 19.6135Z" fill="black"/>
<path d="M72.8605 20.6784C72.8605 21.7689 72.4764 22.6516 71.7169 23.3353C70.8789 24.0796 69.709 24.4518 68.2075 24.4518C66.8195 24.4518 65.7108 24.1835 64.8727 23.6556L65.3528 21.9506C66.2607 22.4785 67.2559 22.7468 68.3385 22.7468C69.1154 22.7468 69.7265 22.5737 70.1543 22.2276C70.5908 21.8814 70.809 21.414 70.809 20.8342C70.809 20.3149 70.6257 19.8822 70.2765 19.5273C69.9186 19.1725 69.3249 18.8436 68.4956 18.5407C66.2171 17.7012 65.0909 16.4809 65.0909 14.8799C65.0909 13.8327 65.4925 12.9759 66.2869 12.3008C67.0813 11.6344 68.1377 11.2969 69.4559 11.2969C70.6257 11.2969 71.6034 11.4959 72.3804 11.9027L71.8566 13.5644C71.1233 13.1749 70.3027 12.9759 69.3773 12.9759C68.6527 12.9759 68.0766 13.1576 67.6662 13.5038C67.3258 13.824 67.1512 14.2048 67.1512 14.6635C67.1512 15.1655 67.352 15.5895 67.7448 15.9097C68.0853 16.2127 68.7138 16.5415 69.6217 16.8964C70.7304 17.3377 71.5423 17.857 72.0661 18.4542C72.5986 19.0513 72.8605 19.7956 72.8605 20.6784Z" fill="black"/>
<path d="M79.7048 16.584H77.4263V21.0584C77.4263 22.1921 77.8278 22.7633 78.631 22.7633C78.9976 22.7633 79.3032 22.7287 79.5476 22.6681L79.6087 24.2259C79.1984 24.3731 78.6659 24.4509 78.0024 24.4509C77.1818 24.4509 76.5533 24.2 76.0906 23.7067C75.6279 23.2133 75.4009 22.3825 75.4009 21.2228V16.5753H74.0478V15.0435H75.4009V13.3558L77.4263 12.75V15.0435H79.7048V16.584Z" fill="black"/>
<path d="M89.9537 19.58C89.9537 20.9994 89.5434 22.1591 88.7315 23.0678C87.876 24.0025 86.7411 24.4698 85.3268 24.4698C83.965 24.4698 82.8737 24.0198 82.0618 23.1284C81.25 22.237 80.8484 21.1032 80.8484 19.7358C80.8484 18.3078 81.2674 17.1394 82.0968 16.2307C82.9348 15.322 84.061 14.8633 85.4752 14.8633C86.8371 14.8633 87.9371 15.3133 88.7664 16.2134C89.5608 17.0788 89.9537 18.2039 89.9537 19.58ZM87.8149 19.6233C87.8149 18.7751 87.6315 18.0568 87.2649 17.451C86.8284 16.7154 86.2086 16.3519 85.4054 16.3519C84.5761 16.3519 83.9388 16.7154 83.511 17.451C83.1356 18.0568 82.961 18.7924 82.961 19.6666C82.961 20.5147 83.1444 21.2417 83.511 21.8388C83.9562 22.5745 84.5848 22.938 85.3879 22.938C86.1736 22.938 86.7935 22.5658 87.2474 21.8215C87.6228 21.1984 87.8149 20.4714 87.8149 19.6233Z" fill="black"/>
<path d="M96.6757 16.8441C96.4749 16.8094 96.2567 16.7921 96.0209 16.7921C95.2964 16.7921 94.7289 17.0604 94.3361 17.6057C93.9956 18.0817 93.821 18.6961 93.821 19.4231V24.261H91.752V17.9432C91.752 16.8787 91.7346 15.9094 91.6909 15.0439H93.4893L93.5678 16.8094H93.629C93.8472 16.2036 94.1877 15.7103 94.6591 15.3468C95.1218 15.018 95.6194 14.8535 96.1519 14.8535C96.344 14.8535 96.5186 14.8708 96.667 14.8881L96.6757 16.8441Z" fill="black"/>
<path d="M105.912 19.2157C105.912 19.5792 105.886 19.8908 105.833 20.1418H99.6351C99.6613 21.0505 99.9581 21.7515 100.534 22.2275C101.058 22.6516 101.73 22.868 102.56 22.868C103.476 22.868 104.314 22.7208 105.065 22.4352L105.388 23.8546C104.506 24.2354 103.468 24.4258 102.272 24.4258C100.831 24.4258 99.6962 24.0017 98.8756 23.1622C98.055 22.3227 97.6447 21.189 97.6447 19.7783C97.6447 18.3936 98.0288 17.2338 98.7971 16.3078C99.6002 15.3212 100.683 14.8279 102.045 14.8279C103.38 14.8279 104.402 15.3212 105.083 16.3078C105.633 17.104 105.912 18.0647 105.912 19.2157ZM103.939 18.6878C103.956 18.082 103.817 17.5541 103.537 17.1127C103.179 16.5415 102.629 16.2559 101.896 16.2559C101.224 16.2559 100.674 16.5328 100.255 17.0867C99.9145 17.5281 99.705 18.0647 99.6439 18.6792L103.939 18.6878Z" fill="black"/>
<path d="M34.7981 6.9082H33.7156L33.122 5.06478H31.0617L30.4943 6.9082H29.4467L31.4808 0.625H32.7379L34.7981 6.9082ZM32.9387 4.28587L32.4062 2.64151C32.3538 2.47707 32.249 2.07896 32.0831 1.45584H32.0657C31.9958 1.72413 31.9085 2.11358 31.7601 2.64151L31.2363 4.28587H32.9387Z" fill="black"/>
<path d="M39.8964 2.37305L38.1679 6.90803H37.1814L35.5052 2.37305H36.5965L37.3734 4.77036C37.5044 5.16847 37.6179 5.54927 37.7052 5.91276H37.7314C37.8099 5.58388 37.9234 5.20308 38.0631 4.77036L38.8313 2.37305H39.8964Z" fill="black"/>
<path d="M43.5804 6.90975L43.5019 6.39048H43.4757C43.1614 6.80589 42.7162 7.0136 42.14 7.0136C41.3194 7.0136 40.7432 6.4424 40.7432 5.6808C40.7432 4.56437 41.721 3.98451 43.4146 3.98451V3.89797C43.4146 3.3008 43.0916 3.00655 42.463 3.00655C42.0091 3.00655 41.6162 3.11906 41.267 3.34408L41.0575 2.68633C41.4765 2.42669 42.0091 2.29688 42.6289 2.29688C43.8249 2.29688 44.4272 2.92 44.4272 4.17491V5.84524C44.4272 6.30393 44.4447 6.65877 44.4971 6.92706L43.5804 6.90975ZM43.4408 4.65091C42.3146 4.65091 41.7472 4.9192 41.7472 5.56829C41.7472 6.04429 42.0353 6.27797 42.4456 6.27797C42.9606 6.27797 43.4408 5.88851 43.4408 5.35193V4.65091Z" fill="black"/>
<path d="M46.6883 1.62876C46.3478 1.62876 46.0859 1.36913 46.0859 1.02294C46.0859 0.676763 46.3566 0.425781 46.7058 0.425781C47.055 0.425781 47.3343 0.676763 47.3256 1.02294C47.3256 1.38644 47.0637 1.62876 46.6883 1.62876ZM46.1994 2.37305H47.2121V6.89938H46.1994V2.37305Z" fill="black"/>
<path d="M49.0192 0.296875H50.0318V6.90029H49.0192V0.296875Z" fill="black"/>
<path d="M54.3444 6.90864L54.2659 6.38936H54.2397C53.9254 6.80478 53.4802 7.01249 52.904 7.01249C52.0834 7.01249 51.5072 6.44129 51.5072 5.67969C51.5072 4.56326 52.485 3.9834 54.1786 3.9834V3.89685C54.1786 3.29969 53.8555 3.00544 53.227 3.00544C52.773 3.00544 52.3802 3.11795 52.031 3.34296L51.8215 2.67656C52.2405 2.41693 52.773 2.28711 53.3929 2.28711C54.5889 2.28711 55.1912 2.91024 55.1912 4.16515V5.83547C55.1912 6.29416 55.2087 6.649 55.2523 6.91729H54.3444V6.90864ZM54.2047 4.6498C53.0786 4.6498 52.5111 4.91809 52.5111 5.56718C52.5111 6.04318 52.7992 6.27686 53.2095 6.27686C53.7246 6.27686 54.2047 5.8874 54.2047 5.35082V4.6498Z" fill="black"/>
<path d="M59.3117 7.0128C58.6657 7.0128 58.1856 6.74451 57.8713 6.20793H57.8538L57.7927 6.90895H56.9285C56.9547 6.54546 56.9634 6.13869 56.9634 5.68866V0.296875H57.9848V3.04037H58.0022C58.3078 2.5384 58.7879 2.28742 59.4601 2.28742C60.5601 2.28742 61.3283 3.22211 61.3283 4.58088C61.3283 5.98291 60.4728 7.0128 59.3117 7.0128ZM59.1022 3.07498C58.5173 3.07498 57.9848 3.57695 57.9848 4.27797V5.07418C57.9848 5.69731 58.4649 6.20793 59.0848 6.20793C59.8443 6.20793 60.2982 5.59346 60.2982 4.61549C60.2982 3.69811 59.8268 3.07498 59.1022 3.07498Z" fill="black"/>
<path d="M62.8298 0.296875H63.8425V6.90029H62.8298V0.296875Z" fill="black"/>
<path d="M69.3686 4.8832H66.3219C66.3393 5.74 66.9155 6.22466 67.7623 6.22466C68.2163 6.22466 68.6266 6.14677 68.9932 6.00829L69.1504 6.70931C68.7226 6.89971 68.2163 6.98626 67.6226 6.98626C66.1909 6.98626 65.3441 6.09484 65.3441 4.70146C65.3441 3.31673 66.2084 2.26953 67.5091 2.26953C68.6702 2.26953 69.4123 3.12633 69.4123 4.42451C69.4123 4.60626 69.4035 4.76204 69.3686 4.8832ZM68.4432 4.16488C68.4432 3.46386 68.0853 2.97055 67.4393 2.97055C66.8544 2.97055 66.4004 3.47251 66.3306 4.16488H68.4432Z" fill="black"/>
<path d="M75.5232 7.01249C74.1875 7.01249 73.3232 6.02587 73.3232 4.68442C73.3232 3.28238 74.205 2.28711 75.6018 2.28711C76.92 2.28711 77.8017 3.23045 77.8017 4.60653C77.8017 6.01722 76.8938 7.01249 75.5232 7.01249ZM75.5668 3.02275C74.8335 3.02275 74.3621 3.70645 74.3621 4.6498C74.3621 5.58449 74.8422 6.25955 75.5581 6.25955C76.274 6.25955 76.7541 5.53256 76.7541 4.62384C76.7454 3.70645 76.2827 3.02275 75.5668 3.02275Z" fill="black"/>
<path d="M83.2578 6.90948H82.2452V4.30446C82.2452 3.49959 81.9309 3.10148 81.3198 3.10148C80.7174 3.10148 80.3071 3.6121 80.3071 4.20926V6.90082H79.2944V3.67268C79.2944 3.27457 79.2857 2.84184 79.2595 2.3745H80.15L80.1936 3.07552H80.2198C80.4904 2.59086 81.0492 2.2793 81.669 2.2793C82.6293 2.2793 83.2578 3.00628 83.2578 4.19195V6.90948Z" fill="black"/>
<path d="M89.9013 3.13474H88.7839V5.33299C88.7839 5.89554 88.9847 6.17248 89.3775 6.17248C89.5521 6.17248 89.7092 6.15517 89.8315 6.12921L89.8576 6.89081C89.6569 6.9687 89.395 7.00332 89.072 7.00332C88.2688 7.00332 87.7974 6.56194 87.7974 5.41954V3.13474H87.1339V2.38179H87.7974V1.55096L88.7926 1.24805V2.37314H89.91V3.13474" fill="black"/>
<path d="M95.2789 6.90895H94.2663V4.32124C94.2663 3.50771 93.952 3.10095 93.3409 3.10095C92.8171 3.10095 92.3282 3.45578 92.3282 4.17411V6.90029H91.3156V0.296875H92.3282V3.0144H92.3457C92.6687 2.52109 93.1226 2.27877 93.7163 2.27877C94.6853 2.27877 95.2789 3.02306 95.2789 4.20873V6.90895Z" fill="black"/>
<path d="M100.464 4.8832H97.4178C97.4352 5.74 98.0114 6.22466 98.8582 6.22466C99.3121 6.22466 99.7225 6.14677 100.089 6.00829L100.246 6.70931C99.8185 6.89971 99.3121 6.98626 98.7185 6.98626C97.2868 6.98626 96.44 6.09484 96.44 4.70146C96.44 3.31673 97.3043 2.26953 98.605 2.26953C99.7661 2.26953 100.508 3.12633 100.508 4.42451C100.508 4.60626 100.499 4.76204 100.464 4.8832ZM99.5391 4.16488C99.5391 3.46386 99.1812 2.97055 98.5352 2.97055C97.9503 2.97055 97.4876 3.47251 97.4265 4.16488H99.5391Z" fill="black"/>
</g>
<defs>
<clipPath id="clip0_0_221">
<rect width="106" height="28" fill="white" transform="translate(0 -0.00195312)"/>
</clipPath>
</defs>
</svg>
