<svg width="49" height="57" viewBox="0 0 49 57" fill="none" xmlns="http://www.w3.org/2000/svg">
<path d="M27.997 49.3564C26.567 47.3364 24.847 47.5364 24.277 47.6764C24.237 47.6864 24.197 47.6964 24.177 47.7064C24.167 47.7064 24.167 47.7064 24.167 47.7064C24.147 47.6964 24.107 47.6864 24.077 47.6764C23.497 47.5364 21.777 47.3364 20.337 49.3564C19.527 50.4964 18.587 52.1964 17.357 53.4664C17.287 53.5464 17.207 53.6264 17.137 53.6964C18.687 55.6764 21.487 56.9964 24.697 56.9964C27.607 56.9964 30.197 55.9064 31.807 54.2164C30.157 52.9464 28.997 50.7464 27.997 49.3564ZM46.357 0.526414C44.667 -2.21359 33.507 6.20641 31.717 15.0464H16.697C14.907 6.20641 3.74704 -2.21359 2.05704 0.526414C0.37704 3.25641 -0.57296 17.1564 0.37704 22.5264C1.32704 27.8964 5.63704 28.5264 5.63704 28.5264C5.63704 28.5264 4.37704 41.2664 7.74704 46.7364L7.75704 46.7164C7.13704 49.3164 8.87704 51.5264 11.727 52.8464C13.767 53.7764 15.347 53.3164 16.627 52.2964C16.807 52.1564 16.967 52.0064 17.137 51.8564C17.207 51.7764 17.287 51.7064 17.357 51.6264C18.587 50.3564 19.527 48.6564 20.337 47.5064C21.777 45.4964 23.497 45.6964 24.077 45.8364C24.107 45.8464 24.147 45.8564 24.167 45.8664C24.167 45.8664 24.167 45.8664 24.177 45.8664C24.197 45.8564 24.237 45.8464 24.277 45.8364C24.847 45.6964 26.567 45.4964 27.997 47.5064C28.997 48.9064 30.157 51.1064 31.807 52.3664C33.077 53.3364 34.627 53.7564 36.617 52.8464C39.417 51.5564 41.147 49.4064 40.627 46.8664L40.667 46.7364C44.037 41.2664 42.777 28.5264 42.777 28.5264C42.777 28.5264 47.087 27.8964 48.037 22.5264C48.987 17.1564 48.037 3.25641 46.357 0.526414ZM24.077 35.2264C24.077 35.2264 24.107 35.2364 24.177 35.2564C24.237 35.2364 24.277 35.2264 24.277 35.2264V35.2864C24.237 35.2764 24.197 35.2664 24.177 35.2564C24.147 35.2664 24.117 35.2764 24.077 35.2864V35.2264ZM5.32704 22.6464C-0.442959 24.4464 2.57704 2.27641 4.21704 2.62641C5.85704 2.96641 13.727 10.2464 13.727 14.4564C13.727 16.8964 11.097 20.8464 5.32704 22.6464ZM14.237 32.8964C12.437 32.8964 9.07704 30.5464 9.07704 30.5464C9.07704 30.5464 12.437 28.2064 14.237 28.2064C16.037 28.2064 17.497 29.2564 17.497 30.5464C17.497 31.8464 16.037 32.8964 14.237 32.8964ZM25.767 38.5564C25.507 38.8564 25.237 39.1264 24.957 39.3464C24.457 39.7564 23.937 40.0364 23.477 40.1364C23.017 40.0364 22.497 39.7664 21.987 39.3464C21.707 39.1264 21.437 38.8564 21.177 38.5564C19.987 37.1664 19.597 35.5464 20.317 34.9364C20.967 34.3764 22.337 34.8664 23.477 36.0264C24.607 34.8664 25.967 34.3764 26.627 34.9364C27.337 35.5464 26.957 37.1664 25.767 38.5564ZM34.447 32.8964C32.647 32.8964 31.187 31.8464 31.187 30.5464C31.187 29.2564 32.647 28.2064 34.447 28.2064C36.247 28.2064 39.607 30.5464 39.607 30.5464C39.607 30.5464 36.247 32.8964 34.447 32.8964ZM43.347 22.6464C37.567 20.8464 34.947 16.8964 34.947 14.4564C34.947 12.0264 40.837 3.61641 44.457 2.62641C46.077 2.17641 49.117 24.4464 43.347 22.6464Z" fill="#F9CE3B"/>
</svg>
