<svg width="54" height="57" viewBox="0 0 54 57" fill="none" xmlns="http://www.w3.org/2000/svg">
<path d="M48.9258 0C46.1377 0 43.8648 2.27284 43.8648 5.06097C43.8648 6.40443 44.3893 7.62827 45.2451 8.53004V13.4622H47.0855V35.2152C47.0855 45.1623 38.9879 53.2598 29.0408 53.2598C23.9982 53.2598 19.4249 51.1802 16.1491 47.8308C16.5724 47.8676 16.9957 47.886 17.4282 47.886C26.7495 47.886 34.3594 40.0461 34.8379 30.1818C34.8471 29.8505 34.8563 29.5285 34.8563 29.1972V13.6738C34.8563 12.6248 34.1662 11.7046 33.1632 11.401L12.496 0.763745C10.9133 -0.0552124 9.01773 0.0276031 7.50864 0.975385L1.81275 4.54567C0.680929 5.24501 0 6.48725 0 7.8123V29.1972C0 29.5285 0.00920065 29.8505 0.0276042 30.1818C0.26685 35.114 2.29124 39.54 5.41064 42.733C6.83691 44.1961 8.50243 45.3923 10.3336 46.2665C14.1247 52.6525 21.0905 56.9405 29.0408 56.9405C41.0215 56.9405 50.7662 47.1959 50.7662 35.2152V13.4622H52.6065V8.53004C53.4623 7.62827 53.9868 6.40443 53.9868 5.06097C53.9868 2.27284 51.7139 0 48.9258 0ZM8.98093 22.8204V7.2786C9.71707 8.53924 11.0881 9.39501 12.6616 9.39501C13.3978 9.39501 14.0971 9.20177 14.7044 8.87051C15.0633 10.8581 16.7932 12.358 18.8912 12.358C19.517 12.358 20.1243 12.2199 20.6672 11.9715C21.0721 13.8855 22.7836 15.3209 24.8172 15.3209C25.949 15.3209 26.9796 14.8885 27.7341 14.1615V22.8204H8.98093ZM48.9258 7.36142C47.656 7.36142 46.6254 6.33082 46.6254 5.06097C46.6254 3.80033 47.656 2.76053 48.9258 2.76053C50.1956 2.76053 51.2262 3.80033 51.2262 5.06097C51.2262 6.33082 50.1956 7.36142 48.9258 7.36142Z" fill="white"/>
</svg>
