<svg width="148" height="30" viewBox="0 0 148 30" fill="none" xmlns="http://www.w3.org/2000/svg">
<g clip-path="url(#clip0_0_209)">
<path opacity="0.54" d="M70.3631 12.7936C67.2164 12.7936 64.6588 15.1839 64.6588 18.4832C64.6588 21.7657 67.2164 24.1728 70.3631 24.1728C73.5097 24.1728 76.0674 21.7657 76.0674 18.4832C76.0674 15.2008 73.5097 12.7936 70.3631 12.7936ZM70.3631 21.934C68.6467 21.934 67.1491 20.5032 67.1491 18.4832C67.1491 16.4296 68.6299 15.0324 70.3631 15.0324C72.0962 15.0324 73.577 16.4296 73.577 18.4832C73.5602 20.5032 72.0794 21.934 70.3631 21.934ZM85.6418 14.0729H85.5577C85.0024 13.3996 83.9255 12.7936 82.5625 12.7936C79.7188 12.7936 77.1106 15.3018 77.1106 18.5C77.1106 21.6815 79.7188 24.1728 82.5625 24.1728C83.9255 24.1728 85.0024 23.5668 85.5577 22.8766H85.6418V23.7015C85.6418 25.8729 84.4808 27.0344 82.613 27.0344C81.0818 27.0344 80.1395 25.9403 79.7524 25.0144L77.5818 25.9234C78.2044 27.4384 79.8702 29.2901 82.6298 29.2901C85.5577 29.2901 88.0312 27.5731 88.0312 23.3648V13.1471H85.6586L85.6418 14.0729ZM82.7813 21.934C81.0649 21.934 79.6178 20.4863 79.6178 18.5C79.6178 16.4969 81.0649 15.0324 82.7813 15.0324C84.4808 15.0324 85.8101 16.4969 85.8101 18.5C85.8101 20.5032 84.4808 21.934 82.7813 21.934ZM57.9112 12.7936C54.7646 12.7936 52.2069 15.1839 52.2069 18.4832C52.2069 21.7657 54.7646 24.1728 57.9112 24.1728C61.0578 24.1728 63.6155 21.7657 63.6155 18.4832C63.6155 15.2008 61.0578 12.7936 57.9112 12.7936ZM57.9112 21.934C56.1949 21.934 54.6973 20.5032 54.6973 18.4832C54.6973 16.4296 56.178 15.0324 57.9112 15.0324C59.6275 15.0324 61.1251 16.4296 61.1251 18.4832C61.1083 20.5032 59.6275 21.934 57.9112 21.934ZM43.0868 14.5274V16.9346H48.8584C48.6901 18.298 48.2358 19.2912 47.5459 19.9814C46.7045 20.823 45.392 21.7488 43.0868 21.7488C39.5363 21.7488 36.7599 18.8872 36.7599 15.3354C36.7599 11.7836 39.5363 8.92202 43.0868 8.92202C45.005 8.92202 46.4017 9.6795 47.4449 10.639L49.1444 8.93884C47.6973 7.55853 45.7791 6.49805 43.0868 6.49805C38.2238 6.49805 34.1181 10.4707 34.1181 15.3354C34.1181 20.2002 38.207 24.1728 43.0868 24.1728C45.7118 24.1728 47.6973 23.3143 49.2454 21.6983C50.8439 20.0992 51.3319 17.8604 51.3319 16.0592C51.3319 15.5038 51.2814 14.9819 51.1973 14.5443L43.0868 14.5274ZM103.663 16.4296C103.192 15.1503 101.745 12.8105 98.8004 12.8105C95.8725 12.8105 93.4326 15.1166 93.4326 18.5C93.4326 21.6815 95.8389 24.1896 99.0696 24.1896C101.678 24.1896 103.192 22.5905 103.815 21.6647L101.88 20.3685C101.24 21.3112 100.348 21.934 99.0865 21.934C97.8244 21.934 96.9158 21.3448 96.3269 20.217L103.933 17.0692L103.663 16.4296ZM95.923 18.3149C95.8557 16.1097 97.6225 14.9988 98.9014 14.9988C99.8941 14.9988 100.735 15.4869 101.005 16.2107L95.923 18.3149ZM89.7307 23.8361H92.2211V7.12087H89.7307V23.8361ZM115.375 7.12087H109.401V23.8361H111.892V17.5069H115.375C118.134 17.5069 120.86 15.5037 120.86 12.3055C120.86 9.12401 118.134 7.12087 115.375 7.12087ZM115.442 15.1503H111.892V9.42701H115.442C117.31 9.42701 118.37 10.9757 118.37 12.2886C118.37 13.6016 117.31 15.1503 115.442 15.1503ZM122.24 23.8361H124.731V7.12087H122.24V23.8361ZM130.856 12.76C129.055 12.76 127.17 13.5511 126.396 15.3186L128.618 16.2444C129.089 15.3186 129.964 15.0156 130.889 15.0156C132.185 15.0156 133.497 15.7899 133.514 17.1702V17.3386C133.06 17.0861 132.101 16.6989 130.906 16.6989C128.517 16.6989 126.094 18.0119 126.094 20.4695C126.094 22.7083 128.045 24.1391 130.25 24.1391C131.932 24.1391 132.858 23.3816 133.43 22.5063H133.514V23.8025H135.92V17.3891C135.937 14.4264 133.716 12.76 130.856 12.76ZM130.553 21.934C129.728 21.934 128.601 21.53 128.601 20.52C128.601 19.2239 130.014 18.7357 131.243 18.7357C132.336 18.7357 132.858 18.9714 133.514 19.2912C133.329 20.8398 132 21.934 130.553 21.934ZM144.704 13.1303L141.843 20.3853H141.759L138.798 13.1303H136.105L140.548 23.2638L138.007 28.9197H140.615L147.48 13.1471H144.704V13.1303Z" fill="black"/>
<path d="M0.0100461 1.39787C-0.32649 1.75137 -0.528412 2.30686 -0.528412 3.01385V28.4823C-0.528412 29.1893 -0.32649 29.7448 0.0100461 30.0983L0.0941802 30.1825L14.3633 15.908V15.5713L0.0941802 1.29688L0.0100461 1.39787Z" fill="url(#paint0_linear_0_209)"/>
<path d="M19.1085 20.6728L14.3633 15.909V15.5724L19.1253 10.8086L19.2263 10.8759L24.8633 14.0742C26.4787 14.9832 26.4787 16.4813 24.8633 17.4072L19.2263 20.6055L19.1085 20.6728Z" fill="url(#paint1_linear_0_209)"/>
<path d="M19.2263 20.605L14.3634 15.7402L0.0100708 30.0989C0.531702 30.6544 1.42352 30.7385 2.39948 30.1662L19.2263 20.605Z" fill="url(#paint2_linear_0_209)"/>
<path d="M19.2263 10.8929L2.39948 1.33175C1.4067 0.776253 0.531702 0.843585 0.0100708 1.39908L14.3634 15.7577L19.2263 10.8929Z" fill="url(#paint3_linear_0_209)"/>
<path opacity="0.2" d="M19.1085 20.5039L2.39948 29.9978C1.45718 30.5364 0.632663 30.5028 0.0942049 30.0146L0.0100708 30.0988L0.0942049 30.1829C0.632663 30.6711 1.474 30.7048 2.39948 30.1661L19.2263 20.6049L19.1085 20.5039Z" fill="black"/>
<path opacity="0.12" d="M0.0100462 29.9305C-0.32649 29.577 -0.528412 29.0215 -0.528412 28.3146V28.4829C-0.528412 29.1899 -0.32649 29.7454 0.0100462 30.0989L0.0941803 30.0147L0.0100462 29.9305ZM24.8464 17.2384L19.1085 20.504L19.2095 20.605L24.8464 17.4067C25.6541 16.9522 26.058 16.3462 26.058 15.7402C25.9907 16.2957 25.5868 16.8176 24.8464 17.2384Z" fill="black"/>
<path opacity="0.25" d="M2.39946 1.48279L24.8464 14.2423C25.57 14.6631 25.9907 15.1849 26.058 15.7404C26.058 15.1344 25.6541 14.5284 24.8464 14.0739L2.39946 1.31446C0.78408 0.405469 -0.528412 1.16296 -0.528412 2.99776V3.1661C-0.528412 1.33129 0.78408 0.573799 2.39946 1.48279Z" fill="white"/>
</g>
<defs>
<linearGradient id="paint0_linear_0_209" x1="13.0838" y1="2.73678" x2="-6.2468" y2="22.0602" gradientUnits="userSpaceOnUse">
<stop stop-color="#00A0FF"/>
<stop offset="0.007" stop-color="#00A1FF"/>
<stop offset="0.26" stop-color="#00BEFF"/>
<stop offset="0.512" stop-color="#00D2FF"/>
<stop offset="0.76" stop-color="#00DFFF"/>
<stop offset="1" stop-color="#00E3FF"/>
</linearGradient>
<linearGradient id="paint1_linear_0_209" x1="26.9461" y1="15.7491" x2="-0.914243" y2="15.7491" gradientUnits="userSpaceOnUse">
<stop stop-color="#FFE000"/>
<stop offset="0.409" stop-color="#FFBD00"/>
<stop offset="0.775" stop-color="#FFA500"/>
<stop offset="1" stop-color="#FF9C00"/>
</linearGradient>
<linearGradient id="paint2_linear_0_209" x1="16.5793" y1="18.3967" x2="-9.63438" y2="44.6006" gradientUnits="userSpaceOnUse">
<stop stop-color="#FF3A44"/>
<stop offset="1" stop-color="#C31162"/>
</linearGradient>
<linearGradient id="paint3_linear_0_209" x1="-3.60433" y1="-7.08985" x2="8.10123" y2="4.61136" gradientUnits="userSpaceOnUse">
<stop stop-color="#32A071"/>
<stop offset="0.069" stop-color="#2DA771"/>
<stop offset="0.476" stop-color="#15CF74"/>
<stop offset="0.801" stop-color="#06E775"/>
<stop offset="1" stop-color="#00F076"/>
</linearGradient>
<clipPath id="clip0_0_209">
<rect width="147.914" height="28.3429" fill="white" transform="translate(0.0573425 0.826172)"/>
</clipPath>
</defs>
</svg>
